<svg width="1440" height="577" viewBox="0 0 1440 577" fill="none" xmlns="http://www.w3.org/2000/svg">
<g clip-path="url(#clip0_201_12)">
<rect width="1440" height="577" fill="white"/>
<path d="M-96.2945 -267.293C2.56817 -283.646 101.424 -299.997 151.837 -249.45C202.253 -198.908 204.217 -81.4722 267.611 -48.8494C331.007 -16.2304 455.827 -68.4325 515.742 -31.0064C575.66 6.41599 570.669 133.454 631.516 169.595C692.364 205.731 819.045 150.961 879.647 187.438C940.252 223.911 934.768 351.631 995.421 388.039C1056.08 424.443 1182.85 369.539 1243.55 405.882C1304.25 442.221 1298.87 569.803 1359.33 606.483C1419.78 643.159 1546.07 588.932 1607.46 624.326C1668.85 659.716 1665.32 784.729 1723.23 824.927C1781.14 865.12 1900.47 820.496 1971.36 842.77C2042.25 865.039 2064.69 954.202 2087.14 1043.37L1723.15 1545.95C1662.5 1509.54 1601.85 1473.14 1541.2 1436.73C1480.55 1400.32 1419.9 1363.92 1359.25 1327.51C1298.6 1291.1 1237.95 1254.7 1177.29 1218.29C1116.64 1181.88 1055.99 1145.47 995.342 1109.07C934.69 1072.66 874.042 1036.25 813.39 999.843C752.738 963.435 692.089 927.029 631.437 890.621C570.785 854.213 510.137 817.807 449.485 781.399C388.833 744.991 328.184 708.585 267.532 672.177C206.88 635.769 146.232 599.363 85.5797 562.955C24.9276 526.547 -35.7207 490.141 -96.3728 453.733C-157.025 417.325 -217.673 380.919 -278.325 344.511C-338.977 308.103 -399.626 271.697 -460.278 235.289L-96.2945 -267.293Z" fill="#F9FAFE"/>
<path d="M-96.2945 -267.293C2.56818 -283.646 101.424 -299.997 151.837 -249.45C202.253 -198.908 204.217 -81.4722 267.611 -48.8494C331.007 -16.2304 455.827 -68.4325 515.742 -31.0064C575.66 6.41599 570.669 133.454 631.516 169.595C692.364 205.731 819.045 150.961 879.647 187.438C940.252 223.911 934.768 351.63 995.421 388.039C1056.08 424.443 1182.85 369.539 1243.55 405.882C1304.25 442.221 1298.87 569.803 1359.33 606.483C1419.78 643.159 1546.07 588.932 1607.46 624.326C1668.85 659.716 1665.32 784.729 1723.23 824.927C1781.14 865.12 1900.47 820.496 1971.36 842.77C2042.25 865.039 2064.69 954.202 2087.14 1043.37" stroke="#F9FAFE"/>
<path d="M-136 -212.47C-40.9628 -223.541 54.0736 -234.618 105.512 -185.487C156.95 -136.357 164.783 -27.024 227.905 5.97394C291.024 38.9757 409.427 -4.36602 469.417 32.9568C529.407 70.2797 530.98 188.255 591.81 224.418C652.637 260.585 772.714 214.932 833.322 251.401C893.93 287.87 895.06 406.458 955.715 442.862C1016.37 479.27 1136.53 433.498 1197.23 469.845C1257.92 506.192 1259.14 624.657 1319.62 661.306C1380.09 697.959 1499.82 652.796 1561.13 688.289C1622.45 723.782 1625.34 839.936 1683.52 879.75C1741.71 919.568 1855.17 883.047 1925.04 906.733C1994.9 930.419 2021.16 1014.31 2047.43 1098.19L1723.15 1545.95C1662.5 1509.54 1601.85 1473.14 1541.2 1436.73C1480.55 1400.32 1419.9 1363.92 1359.25 1327.51C1298.59 1291.1 1237.95 1254.69 1177.29 1218.29C1116.64 1181.88 1055.99 1145.47 995.341 1109.06C934.689 1072.66 874.041 1036.25 813.389 999.843C752.737 963.435 692.088 927.029 631.436 890.621C570.784 854.213 510.136 817.807 449.484 781.399C388.832 744.991 328.183 708.585 267.531 672.177C206.879 635.769 146.231 599.363 85.5788 562.955C24.9267 526.547 -35.7216 490.141 -96.3738 453.733C-157.026 417.325 -217.674 380.919 -278.326 344.511C-338.978 308.103 -399.627 271.697 -460.279 235.289L-136 -212.47Z" fill="#F9FAFE"/>
<path d="M-136 -212.47C-40.9628 -223.541 54.0736 -234.618 105.512 -185.487C156.95 -136.357 164.783 -27.0239 227.905 5.97396C291.024 38.9757 409.427 -4.36602 469.417 32.9568C529.407 70.2797 530.98 188.255 591.81 224.418C652.637 260.585 772.714 214.932 833.322 251.401C893.93 287.87 895.06 406.458 955.715 442.862C1016.37 479.27 1136.53 433.498 1197.23 469.845C1257.92 506.192 1259.14 624.657 1319.62 661.306C1380.09 697.959 1499.82 652.796 1561.13 688.289C1622.45 723.782 1625.34 839.936 1683.52 879.75C1741.71 919.568 1855.17 883.047 1925.04 906.733C1994.9 930.419 2021.16 1014.31 2047.43 1098.19" stroke="#F9FAFE"/>
<g filter="url(#filter0_d_201_12)">
<path d="M-113.167 -255.567C-13.4183 -266.595 86.3233 -277.622 133.382 -224.463C180.444 -171.307 174.815 -53.97 235.991 -18.008C297.169 17.9504 425.147 -27.4751 482.539 13.0957C539.934 53.6628 526.743 180.214 585.148 219.551C643.556 258.884 773.556 210.994 831.696 250.654C889.839 290.311 876.111 417.516 934.305 457.109C992.502 496.7 1122.61 448.682 1180.85 488.213C1239.1 527.741 1225.48 654.814 1283.46 694.668C1341.45 734.519 1471.02 687.151 1530.01 725.772C1589.01 764.389 1577.41 888.997 1632.62 932.227C1687.83 975.453 1809.84 937.298 1879.17 963.331C1948.5 989.359 1965.14 1079.57 1981.78 1169.79L1585.94 1652C1527.75 1612.41 1469.56 1572.81 1411.36 1533.22C1353.17 1493.63 1294.98 1454.04 1236.79 1414.44C1178.59 1374.85 1120.4 1335.26 1062.21 1295.66C1004.01 1256.07 945.823 1216.48 887.629 1176.88C829.435 1137.29 771.244 1097.7 713.05 1058.1C654.856 1018.51 596.666 978.918 538.472 939.324C480.278 899.73 422.087 860.138 363.893 820.545C305.699 780.951 247.509 741.359 189.315 701.765C131.121 662.171 72.9301 622.58 14.736 582.986C-43.4581 543.392 -101.648 503.8 -159.843 464.206C-218.037 424.612 -276.227 385.021 -334.421 345.427C-392.615 305.833 -450.806 266.242 -509 226.648L-113.167 -255.567Z" fill="#F4F5FA"/>
<path d="M-113.166 -255.567C-13.4183 -266.595 86.3233 -277.622 133.382 -224.463C180.444 -171.307 174.815 -53.9701 235.991 -18.008C297.169 17.9504 425.147 -27.4751 482.539 13.0957C539.934 53.6628 526.743 180.214 585.148 219.551C643.556 258.884 773.556 210.994 831.696 250.654C889.839 290.311 876.111 417.516 934.305 457.109C992.502 496.7 1122.61 448.682 1180.85 488.213C1239.1 527.741 1225.48 654.814 1283.46 694.668C1341.45 734.519 1471.02 687.151 1530.01 725.772C1589.01 764.389 1577.41 888.997 1632.62 932.227C1687.83 975.453 1809.84 937.298 1879.17 963.331C1948.5 989.359 1965.14 1079.57 1981.78 1169.79" fill="#F4F5FA"/>
<path d="M-113.166 -255.567C-13.4183 -266.595 86.3233 -277.622 133.382 -224.463C180.444 -171.307 174.815 -53.9701 235.991 -18.008C297.169 17.9504 425.147 -27.4751 482.539 13.0957C539.934 53.6628 526.743 180.214 585.148 219.551C643.556 258.884 773.556 210.994 831.696 250.654C889.839 290.311 876.111 417.516 934.305 457.109C992.502 496.7 1122.61 448.682 1180.85 488.213C1239.1 527.741 1225.48 654.814 1283.46 694.668C1341.45 734.519 1471.02 687.151 1530.01 725.772C1589.01 764.389 1577.41 888.997 1632.62 932.227C1687.83 975.453 1809.84 937.298 1879.17 963.331C1948.5 989.359 1965.14 1079.57 1981.78 1169.79" stroke="#F4F5FA"/>
<path d="M-156.346 -202.965C-60.7574 -208.926 34.8303 -214.893 83.0043 -163.092C131.178 -111.292 131.932 -1.72866 192.811 34.5933C253.688 70.9189 374.688 33.9948 432.161 74.4664C489.635 114.938 483.582 232.793 541.969 272.152C600.353 311.515 723.173 272.372 781.319 312.025C839.464 351.678 832.929 470.12 891.126 509.711C949.32 549.305 1072.23 510.049 1130.48 549.584C1188.72 589.119 1182.28 707.444 1240.28 747.269C1298.28 787.098 1420.72 748.426 1479.63 787.143C1538.55 825.859 1533.93 941.966 1589.44 984.828C1644.95 1027.69 1760.58 997.314 1828.79 1024.7C1897 1052.09 1917.8 1137.24 1938.6 1222.39L1585.94 1652C1527.75 1612.41 1469.56 1572.81 1411.36 1533.22C1353.17 1493.63 1294.98 1454.03 1236.79 1414.44C1178.59 1374.85 1120.4 1335.26 1062.21 1295.66C1004.01 1256.07 945.823 1216.48 887.629 1176.88C829.435 1137.29 771.244 1097.7 713.05 1058.1C654.856 1018.51 596.666 978.917 538.472 939.323C480.277 899.729 422.087 860.138 363.893 820.544C305.699 780.95 247.508 741.359 189.314 701.765C131.12 662.171 72.9299 622.579 14.7358 582.985C-43.4583 543.391 -101.649 503.8 -159.843 464.206C-218.037 424.612 -276.227 385.02 -334.421 345.427C-392.615 305.833 -450.806 266.241 -509 226.647L-156.346 -202.965Z" fill="#F4F5FA"/>
<path d="M-156.346 -202.965C-60.7574 -208.926 34.8303 -214.893 83.0043 -163.092C131.178 -111.292 131.932 -1.72867 192.811 34.5933C253.688 70.9189 374.688 33.9948 432.161 74.4664C489.635 114.938 483.582 232.793 541.969 272.152C600.353 311.515 723.173 272.372 781.319 312.025C839.464 351.678 832.929 470.12 891.126 509.711C949.32 549.305 1072.23 510.049 1130.48 549.584C1188.72 589.119 1182.28 707.444 1240.28 747.269C1298.28 787.098 1420.72 748.426 1479.63 787.143C1538.55 825.859 1533.93 941.966 1589.44 984.828C1644.95 1027.69 1760.58 997.314 1828.79 1024.7C1897 1052.09 1917.8 1137.24 1938.6 1222.39" fill="#F4F5FA"/>
<path d="M-156.346 -202.965C-60.7574 -208.926 34.8303 -214.893 83.0043 -163.092C131.178 -111.292 131.932 -1.72867 192.811 34.5933C253.688 70.9189 374.688 33.9948 432.161 74.4664C489.635 114.938 483.582 232.793 541.969 272.152C600.353 311.515 723.173 272.372 781.319 312.025C839.464 351.678 832.929 470.12 891.126 509.711C949.32 549.305 1072.23 510.049 1130.48 549.584C1188.72 589.119 1182.28 707.444 1240.28 747.269C1298.28 787.098 1420.72 748.426 1479.63 787.143C1538.55 825.859 1533.93 941.966 1589.44 984.828C1644.95 1027.69 1760.58 997.314 1828.79 1024.7C1897 1052.09 1917.8 1137.24 1938.6 1222.39" stroke="#F4F5FA"/>
</g>
</g>
<defs>
<filter id="filter0_d_201_12" x="-513" y="-265.187" width="2499.29" height="1925.19" filterUnits="userSpaceOnUse" color-interpolation-filters="sRGB">
<feFlood flood-opacity="0" result="BackgroundImageFix"/>
<feColorMatrix in="SourceAlpha" type="matrix" values="0 0 0 0 0 0 0 0 0 0 0 0 0 0 0 0 0 0 127 0" result="hardAlpha"/>
<feOffset dy="4"/>
<feGaussianBlur stdDeviation="2"/>
<feComposite in2="hardAlpha" operator="out"/>
<feColorMatrix type="matrix" values="0 0 0 0 0 0 0 0 0 0 0 0 0 0 0 0 0 0 0.25 0"/>
<feBlend mode="normal" in2="BackgroundImageFix" result="effect1_dropShadow_201_12"/>
<feBlend mode="normal" in="SourceGraphic" in2="effect1_dropShadow_201_12" result="shape"/>
</filter>
<clipPath id="clip0_201_12">
<rect width="1440" height="577" fill="white"/>
</clipPath>
</defs>
</svg>
